<?xml version="1.0" standalone="no"?>
<!DOCTYPE svg PUBLIC "-//W3C//DTD SVG 20010904//EN"
 "http://www.w3.org/TR/2001/REC-SVG-20010904/DTD/svg10.dtd">
<svg version="1.0" xmlns="http://www.w3.org/2000/svg"
 width="968.000000pt" height="968.000000pt" viewBox="0 0 968.000000 968.000000"
 preserveAspectRatio="xMidYMid meet">
<metadata>
Created by potrace 1.14, written by Peter Selinger 2001-2017
</metadata>
<g transform="translate(0.000000,968.000000) scale(0.100000,-0.100000)"
fill="#000000" stroke="none">
<path d="M910 4840 l0 -4840 1388 0 1387 0 0 352 0 353 -920 1 c-506 1 -925 2
-931 3 -12 1 -15 8253 -3 8261 4 3 422 5 928 5 507 0 922 2 922 5 1 3 2 161 3
353 l2 347 -1388 0 -1388 0 0 -4840z"/>
<path d="M7583 7630 c-6 -11 -10 -1467 -4 -1500 1 -3 268 -5 594 -5 l592 1 3
757 c2 602 0 757 -10 758 -44 4 -55 3 -75 -3 -13 -4 -23 -4 -23 0 0 9 -94 7
-109 -3 -6 -3 -11 -3 -11 2 0 4 -108 8 -240 8 -132 0 -240 -3 -240 -7 0 -4 -7
-5 -15 -2 -24 10 -98 11 -122 2 -13 -4 -23 -4 -23 0 0 4 -69 7 -154 7 -127 0
-156 -3 -163 -15z"/>
<path d="M7578 3663 c-3 -7 -2 -1448 1 -1493 1 -13 74 -15 596 -15 l595 0 0
757 0 758 -594 0 c-327 0 -596 -3 -598 -7z"/>
</g>
</svg>
